<svg xmlns="http://www.w3.org/2000/svg" xmlns:xlink="http://www.w3.org/1999/xlink" width="185" zoomAndPan="magnify" viewBox="0 0 138.75 33.749998" height="45" preserveAspectRatio="xMidYMid meet" version="1.0"><defs><g/><clipPath id="c52460c807"><path d="M 0.386719 0 L 35.375 0 L 35.375 29.78125 L 0.386719 29.78125 Z M 0.386719 0 " clip-rule="nonzero"/></clipPath></defs><g fill="#000000" fill-opacity="1"><g transform="translate(38.497854, 23.322089)"><g><path d="M 4.125 0.203125 C 3.445312 0.203125 2.859375 0.078125 2.359375 -0.171875 C 1.859375 -0.421875 1.472656 -0.785156 1.203125 -1.265625 C 0.941406 -1.753906 0.8125 -2.335938 0.8125 -3.015625 C 0.8125 -3.640625 0.941406 -4.160156 1.203125 -4.578125 C 1.472656 -5.003906 1.890625 -5.351562 2.453125 -5.625 C 3.015625 -5.894531 3.75 -6.101562 4.65625 -6.25 C 5.289062 -6.351562 5.769531 -6.46875 6.09375 -6.59375 C 6.425781 -6.71875 6.648438 -6.851562 6.765625 -7 C 6.878906 -7.15625 6.9375 -7.351562 6.9375 -7.59375 C 6.9375 -7.925781 6.816406 -8.179688 6.578125 -8.359375 C 6.347656 -8.546875 5.957031 -8.640625 5.40625 -8.640625 C 4.8125 -8.640625 4.25 -8.503906 3.71875 -8.234375 C 3.195312 -7.972656 2.738281 -7.628906 2.34375 -7.203125 L 2.15625 -7.203125 L 1.046875 -8.890625 C 1.578125 -9.484375 2.226562 -9.941406 3 -10.265625 C 3.78125 -10.597656 4.625 -10.765625 5.53125 -10.765625 C 6.9375 -10.765625 7.953125 -10.46875 8.578125 -9.875 C 9.203125 -9.28125 9.515625 -8.4375 9.515625 -7.34375 L 9.515625 -2.765625 C 9.515625 -2.285156 9.722656 -2.046875 10.140625 -2.046875 C 10.296875 -2.046875 10.453125 -2.078125 10.609375 -2.140625 L 10.734375 -2.09375 L 10.9375 -0.25 C 10.789062 -0.15625 10.582031 -0.078125 10.3125 -0.015625 C 10.050781 0.046875 9.765625 0.078125 9.453125 0.078125 C 8.828125 0.078125 8.335938 -0.0390625 7.984375 -0.28125 C 7.628906 -0.53125 7.375 -0.910156 7.21875 -1.421875 L 7.015625 -1.453125 C 6.492188 -0.347656 5.53125 0.203125 4.125 0.203125 Z M 4.96875 -1.78125 C 5.582031 -1.78125 6.070312 -1.984375 6.4375 -2.390625 C 6.800781 -2.804688 6.984375 -3.382812 6.984375 -4.125 L 6.984375 -5.1875 L 6.796875 -5.234375 C 6.640625 -5.109375 6.429688 -5 6.171875 -4.90625 C 5.910156 -4.820312 5.539062 -4.738281 5.0625 -4.65625 C 4.488281 -4.5625 4.070312 -4.394531 3.8125 -4.15625 C 3.5625 -3.925781 3.4375 -3.597656 3.4375 -3.171875 C 3.4375 -2.710938 3.570312 -2.363281 3.84375 -2.125 C 4.113281 -1.894531 4.488281 -1.78125 4.96875 -1.78125 Z M 4.96875 -1.78125 "/></g></g></g><g fill="#000000" fill-opacity="1"><g transform="translate(49.455554, 23.322089)"><g><path d="M 5.21875 0.203125 C 4.382812 0.203125 3.644531 0 3 -0.40625 C 2.363281 -0.8125 1.863281 -1.425781 1.5 -2.25 C 1.132812 -3.070312 0.953125 -4.082031 0.953125 -5.28125 C 0.953125 -6.488281 1.132812 -7.5 1.5 -8.3125 C 1.875 -9.132812 2.390625 -9.75 3.046875 -10.15625 C 3.710938 -10.5625 4.484375 -10.765625 5.359375 -10.765625 C 6.015625 -10.765625 6.582031 -10.648438 7.0625 -10.421875 C 7.550781 -10.203125 7.957031 -9.851562 8.28125 -9.375 L 8.484375 -9.421875 L 8.484375 -14.8125 L 11.140625 -14.8125 L 11.140625 0 L 8.484375 0 L 8.484375 -1.375 L 8.28125 -1.40625 C 7.988281 -0.90625 7.585938 -0.507812 7.078125 -0.21875 C 6.566406 0.0625 5.945312 0.203125 5.21875 0.203125 Z M 6.078125 -2.046875 C 6.828125 -2.046875 7.421875 -2.3125 7.859375 -2.84375 C 8.296875 -3.382812 8.515625 -4.195312 8.515625 -5.28125 C 8.515625 -6.363281 8.296875 -7.171875 7.859375 -7.703125 C 7.421875 -8.242188 6.828125 -8.515625 6.078125 -8.515625 C 5.304688 -8.515625 4.710938 -8.253906 4.296875 -7.734375 C 3.890625 -7.210938 3.6875 -6.394531 3.6875 -5.28125 C 3.6875 -4.164062 3.890625 -3.347656 4.296875 -2.828125 C 4.710938 -2.304688 5.304688 -2.046875 6.078125 -2.046875 Z M 6.078125 -2.046875 "/></g></g></g><g fill="#000000" fill-opacity="1"><g transform="translate(61.935478, 23.322089)"><g><path d="M 4.9375 0.203125 C 4.21875 0.203125 3.554688 0.117188 2.953125 -0.046875 C 2.359375 -0.222656 1.847656 -0.457031 1.421875 -0.75 C 0.992188 -1.050781 0.679688 -1.390625 0.484375 -1.765625 L 1.953125 -3.359375 L 2.15625 -3.359375 C 2.507812 -2.890625 2.925781 -2.535156 3.40625 -2.296875 C 3.882812 -2.054688 4.40625 -1.9375 4.96875 -1.9375 C 5.476562 -1.9375 5.863281 -2.03125 6.125 -2.21875 C 6.394531 -2.40625 6.53125 -2.671875 6.53125 -3.015625 C 6.53125 -3.285156 6.429688 -3.507812 6.234375 -3.6875 C 6.046875 -3.875 5.742188 -4.019531 5.328125 -4.125 L 3.921875 -4.453125 C 2.878906 -4.703125 2.113281 -5.082031 1.625 -5.59375 C 1.144531 -6.113281 0.90625 -6.769531 0.90625 -7.5625 C 0.90625 -8.21875 1.070312 -8.785156 1.40625 -9.265625 C 1.75 -9.753906 2.222656 -10.125 2.828125 -10.375 C 3.441406 -10.632812 4.15625 -10.765625 4.96875 -10.765625 C 5.914062 -10.765625 6.703125 -10.628906 7.328125 -10.359375 C 7.953125 -10.085938 8.441406 -9.71875 8.796875 -9.25 L 7.375 -7.71875 L 7.1875 -7.71875 C 6.894531 -8.050781 6.5625 -8.296875 6.1875 -8.453125 C 5.820312 -8.609375 5.414062 -8.6875 4.96875 -8.6875 C 3.914062 -8.6875 3.390625 -8.359375 3.390625 -7.703125 C 3.390625 -7.429688 3.488281 -7.207031 3.6875 -7.03125 C 3.882812 -6.863281 4.226562 -6.722656 4.71875 -6.609375 L 6.015625 -6.328125 C 7.085938 -6.097656 7.867188 -5.726562 8.359375 -5.21875 C 8.859375 -4.707031 9.109375 -4.023438 9.109375 -3.171875 C 9.109375 -2.503906 8.941406 -1.910156 8.609375 -1.390625 C 8.273438 -0.878906 7.796875 -0.484375 7.171875 -0.203125 C 6.546875 0.0664062 5.800781 0.203125 4.9375 0.203125 Z M 4.9375 0.203125 "/></g></g></g><g fill="#000000" fill-opacity="1"><g transform="translate(71.495408, 23.322089)"><g/></g></g><g fill="#000000" fill-opacity="1"><g transform="translate(75.942942, 23.322089)"><g><path d="M 4.125 0.203125 C 3.445312 0.203125 2.859375 0.078125 2.359375 -0.171875 C 1.859375 -0.421875 1.472656 -0.785156 1.203125 -1.265625 C 0.941406 -1.753906 0.8125 -2.335938 0.8125 -3.015625 C 0.8125 -3.640625 0.941406 -4.160156 1.203125 -4.578125 C 1.472656 -5.003906 1.890625 -5.351562 2.453125 -5.625 C 3.015625 -5.894531 3.75 -6.101562 4.65625 -6.25 C 5.289062 -6.351562 5.769531 -6.46875 6.09375 -6.59375 C 6.425781 -6.71875 6.648438 -6.851562 6.765625 -7 C 6.878906 -7.15625 6.9375 -7.351562 6.9375 -7.59375 C 6.9375 -7.925781 6.816406 -8.179688 6.578125 -8.359375 C 6.347656 -8.546875 5.957031 -8.640625 5.40625 -8.640625 C 4.8125 -8.640625 4.25 -8.503906 3.71875 -8.234375 C 3.195312 -7.972656 2.738281 -7.628906 2.34375 -7.203125 L 2.15625 -7.203125 L 1.046875 -8.890625 C 1.578125 -9.484375 2.226562 -9.941406 3 -10.265625 C 3.78125 -10.597656 4.625 -10.765625 5.53125 -10.765625 C 6.9375 -10.765625 7.953125 -10.46875 8.578125 -9.875 C 9.203125 -9.28125 9.515625 -8.4375 9.515625 -7.34375 L 9.515625 -2.765625 C 9.515625 -2.285156 9.722656 -2.046875 10.140625 -2.046875 C 10.296875 -2.046875 10.453125 -2.078125 10.609375 -2.140625 L 10.734375 -2.09375 L 10.9375 -0.25 C 10.789062 -0.15625 10.582031 -0.078125 10.3125 -0.015625 C 10.050781 0.046875 9.765625 0.078125 9.453125 0.078125 C 8.828125 0.078125 8.335938 -0.0390625 7.984375 -0.28125 C 7.628906 -0.53125 7.375 -0.910156 7.21875 -1.421875 L 7.015625 -1.453125 C 6.492188 -0.347656 5.53125 0.203125 4.125 0.203125 Z M 4.96875 -1.78125 C 5.582031 -1.78125 6.070312 -1.984375 6.4375 -2.390625 C 6.800781 -2.804688 6.984375 -3.382812 6.984375 -4.125 L 6.984375 -5.1875 L 6.796875 -5.234375 C 6.640625 -5.109375 6.429688 -5 6.171875 -4.90625 C 5.910156 -4.820312 5.539062 -4.738281 5.0625 -4.65625 C 4.488281 -4.5625 4.070312 -4.394531 3.8125 -4.15625 C 3.5625 -3.925781 3.4375 -3.597656 3.4375 -3.171875 C 3.4375 -2.710938 3.570312 -2.363281 3.84375 -2.125 C 4.113281 -1.894531 4.488281 -1.78125 4.96875 -1.78125 Z M 4.96875 -1.78125 "/></g></g></g><g fill="#000000" fill-opacity="1"><g transform="translate(86.900641, 23.322089)"><g><path d="M 4.9375 0.203125 C 4.21875 0.203125 3.554688 0.117188 2.953125 -0.046875 C 2.359375 -0.222656 1.847656 -0.457031 1.421875 -0.75 C 0.992188 -1.050781 0.679688 -1.390625 0.484375 -1.765625 L 1.953125 -3.359375 L 2.15625 -3.359375 C 2.507812 -2.890625 2.925781 -2.535156 3.40625 -2.296875 C 3.882812 -2.054688 4.40625 -1.9375 4.96875 -1.9375 C 5.476562 -1.9375 5.863281 -2.03125 6.125 -2.21875 C 6.394531 -2.40625 6.53125 -2.671875 6.53125 -3.015625 C 6.53125 -3.285156 6.429688 -3.507812 6.234375 -3.6875 C 6.046875 -3.875 5.742188 -4.019531 5.328125 -4.125 L 3.921875 -4.453125 C 2.878906 -4.703125 2.113281 -5.082031 1.625 -5.59375 C 1.144531 -6.113281 0.90625 -6.769531 0.90625 -7.5625 C 0.90625 -8.21875 1.070312 -8.785156 1.40625 -9.265625 C 1.75 -9.753906 2.222656 -10.125 2.828125 -10.375 C 3.441406 -10.632812 4.15625 -10.765625 4.96875 -10.765625 C 5.914062 -10.765625 6.703125 -10.628906 7.328125 -10.359375 C 7.953125 -10.085938 8.441406 -9.71875 8.796875 -9.25 L 7.375 -7.71875 L 7.1875 -7.71875 C 6.894531 -8.050781 6.5625 -8.296875 6.1875 -8.453125 C 5.820312 -8.609375 5.414062 -8.6875 4.96875 -8.6875 C 3.914062 -8.6875 3.390625 -8.359375 3.390625 -7.703125 C 3.390625 -7.429688 3.488281 -7.207031 3.6875 -7.03125 C 3.882812 -6.863281 4.226562 -6.722656 4.71875 -6.609375 L 6.015625 -6.328125 C 7.085938 -6.097656 7.867188 -5.726562 8.359375 -5.21875 C 8.859375 -4.707031 9.109375 -4.023438 9.109375 -3.171875 C 9.109375 -2.503906 8.941406 -1.910156 8.609375 -1.390625 C 8.273438 -0.878906 7.796875 -0.484375 7.171875 -0.203125 C 6.546875 0.0664062 5.800781 0.203125 4.9375 0.203125 Z M 4.9375 0.203125 "/></g></g></g><g fill="#000000" fill-opacity="1"><g transform="translate(96.460573, 23.322089)"><g><path d="M 4.9375 0.203125 C 4.21875 0.203125 3.554688 0.117188 2.953125 -0.046875 C 2.359375 -0.222656 1.847656 -0.457031 1.421875 -0.75 C 0.992188 -1.050781 0.679688 -1.390625 0.484375 -1.765625 L 1.953125 -3.359375 L 2.15625 -3.359375 C 2.507812 -2.890625 2.925781 -2.535156 3.40625 -2.296875 C 3.882812 -2.054688 4.40625 -1.9375 4.96875 -1.9375 C 5.476562 -1.9375 5.863281 -2.03125 6.125 -2.21875 C 6.394531 -2.40625 6.53125 -2.671875 6.53125 -3.015625 C 6.53125 -3.285156 6.429688 -3.507812 6.234375 -3.6875 C 6.046875 -3.875 5.742188 -4.019531 5.328125 -4.125 L 3.921875 -4.453125 C 2.878906 -4.703125 2.113281 -5.082031 1.625 -5.59375 C 1.144531 -6.113281 0.90625 -6.769531 0.90625 -7.5625 C 0.90625 -8.21875 1.070312 -8.785156 1.40625 -9.265625 C 1.75 -9.753906 2.222656 -10.125 2.828125 -10.375 C 3.441406 -10.632812 4.15625 -10.765625 4.96875 -10.765625 C 5.914062 -10.765625 6.703125 -10.628906 7.328125 -10.359375 C 7.953125 -10.085938 8.441406 -9.71875 8.796875 -9.25 L 7.375 -7.71875 L 7.1875 -7.71875 C 6.894531 -8.050781 6.5625 -8.296875 6.1875 -8.453125 C 5.820312 -8.609375 5.414062 -8.6875 4.96875 -8.6875 C 3.914062 -8.6875 3.390625 -8.359375 3.390625 -7.703125 C 3.390625 -7.429688 3.488281 -7.207031 3.6875 -7.03125 C 3.882812 -6.863281 4.226562 -6.722656 4.71875 -6.609375 L 6.015625 -6.328125 C 7.085938 -6.097656 7.867188 -5.726562 8.359375 -5.21875 C 8.859375 -4.707031 9.109375 -4.023438 9.109375 -3.171875 C 9.109375 -2.503906 8.941406 -1.910156 8.609375 -1.390625 C 8.273438 -0.878906 7.796875 -0.484375 7.171875 -0.203125 C 6.546875 0.0664062 5.800781 0.203125 4.9375 0.203125 Z M 4.9375 0.203125 "/></g></g></g><g fill="#000000" fill-opacity="1"><g transform="translate(106.020502, 23.322089)"><g><path d="M 2.84375 -11.828125 C 2.363281 -11.828125 1.972656 -11.972656 1.671875 -12.265625 C 1.378906 -12.554688 1.234375 -12.929688 1.234375 -13.390625 C 1.234375 -13.847656 1.378906 -14.222656 1.671875 -14.515625 C 1.972656 -14.804688 2.363281 -14.953125 2.84375 -14.953125 C 3.164062 -14.953125 3.453125 -14.882812 3.703125 -14.75 C 3.953125 -14.613281 4.144531 -14.425781 4.28125 -14.1875 C 4.414062 -13.957031 4.484375 -13.691406 4.484375 -13.390625 C 4.484375 -13.097656 4.414062 -12.832031 4.28125 -12.59375 C 4.144531 -12.351562 3.953125 -12.164062 3.703125 -12.03125 C 3.453125 -11.894531 3.164062 -11.828125 2.84375 -11.828125 Z M 1.53125 0 L 1.53125 -10.5625 L 4.171875 -10.5625 L 4.171875 0 Z M 1.53125 0 "/></g></g></g><g fill="#000000" fill-opacity="1"><g transform="translate(111.530718, 23.322089)"><g><path d="M 4.9375 0.203125 C 4.21875 0.203125 3.554688 0.117188 2.953125 -0.046875 C 2.359375 -0.222656 1.847656 -0.457031 1.421875 -0.75 C 0.992188 -1.050781 0.679688 -1.390625 0.484375 -1.765625 L 1.953125 -3.359375 L 2.15625 -3.359375 C 2.507812 -2.890625 2.925781 -2.535156 3.40625 -2.296875 C 3.882812 -2.054688 4.40625 -1.9375 4.96875 -1.9375 C 5.476562 -1.9375 5.863281 -2.03125 6.125 -2.21875 C 6.394531 -2.40625 6.53125 -2.671875 6.53125 -3.015625 C 6.53125 -3.285156 6.429688 -3.507812 6.234375 -3.6875 C 6.046875 -3.875 5.742188 -4.019531 5.328125 -4.125 L 3.921875 -4.453125 C 2.878906 -4.703125 2.113281 -5.082031 1.625 -5.59375 C 1.144531 -6.113281 0.90625 -6.769531 0.90625 -7.5625 C 0.90625 -8.21875 1.070312 -8.785156 1.40625 -9.265625 C 1.75 -9.753906 2.222656 -10.125 2.828125 -10.375 C 3.441406 -10.632812 4.15625 -10.765625 4.96875 -10.765625 C 5.914062 -10.765625 6.703125 -10.628906 7.328125 -10.359375 C 7.953125 -10.085938 8.441406 -9.71875 8.796875 -9.25 L 7.375 -7.71875 L 7.1875 -7.71875 C 6.894531 -8.050781 6.5625 -8.296875 6.1875 -8.453125 C 5.820312 -8.609375 5.414062 -8.6875 4.96875 -8.6875 C 3.914062 -8.6875 3.390625 -8.359375 3.390625 -7.703125 C 3.390625 -7.429688 3.488281 -7.207031 3.6875 -7.03125 C 3.882812 -6.863281 4.226562 -6.722656 4.71875 -6.609375 L 6.015625 -6.328125 C 7.085938 -6.097656 7.867188 -5.726562 8.359375 -5.21875 C 8.859375 -4.707031 9.109375 -4.023438 9.109375 -3.171875 C 9.109375 -2.503906 8.941406 -1.910156 8.609375 -1.390625 C 8.273438 -0.878906 7.796875 -0.484375 7.171875 -0.203125 C 6.546875 0.0664062 5.800781 0.203125 4.9375 0.203125 Z M 4.9375 0.203125 "/></g></g></g><g fill="#000000" fill-opacity="1"><g transform="translate(121.090646, 23.322089)"><g><path d="M 7.296875 -2.515625 L 7.984375 -0.5625 C 7.691406 -0.320312 7.328125 -0.132812 6.890625 0 C 6.460938 0.132812 5.972656 0.203125 5.421875 0.203125 C 4.273438 0.203125 3.40625 -0.109375 2.8125 -0.734375 C 2.21875 -1.359375 1.921875 -2.265625 1.921875 -3.453125 L 1.921875 -8.46875 L 0.3125 -8.46875 L 0.3125 -10.578125 L 1.921875 -10.578125 L 1.921875 -12.640625 L 4.578125 -13.078125 L 4.578125 -10.578125 L 7.578125 -10.578125 L 7.578125 -8.46875 L 4.578125 -8.46875 L 4.578125 -3.640625 C 4.578125 -3.117188 4.6875 -2.738281 4.90625 -2.5 C 5.125 -2.257812 5.441406 -2.140625 5.859375 -2.140625 C 6.328125 -2.140625 6.738281 -2.265625 7.09375 -2.515625 Z M 7.296875 -2.515625 "/></g></g></g><g clip-path="url(#c52460c807)"><path fill="#000000" d="M 17.75 0 L 0.417969 29.789062 L 17.203125 29.789062 L 21.757812 21.957031 L 19.199219 18.109375 L 18.160156 19.894531 L 14.804688 25.664062 L 7.621094 25.664062 L 17.777344 8.199219 L 28.074219 25.605469 L 23.128906 25.605469 L 21.050781 29.730469 L 35.335938 29.730469 Z M 17.75 0 " fill-opacity="1" fill-rule="nonzero"/></g></svg>