<svg xmlns="http://www.w3.org/2000/svg" xmlns:xlink="http://www.w3.org/1999/xlink" width="315" zoomAndPan="magnify" viewBox="0 0 236.25 232.499992" height="310" preserveAspectRatio="xMidYMid meet" version="1.0"><defs><g/><clipPath id="5cbb46a309"><path d="M 4.425781 0.117188 L 230.957031 0.117188 L 230.957031 194.5 L 4.425781 194.5 Z M 4.425781 0.117188 " clip-rule="nonzero"/></clipPath></defs><g clip-path="url(#5cbb46a309)"><path fill="#000000" d="M 116.832031 0.117188 L 4.648438 194.5625 L 113.300781 194.5625 L 142.792969 143.445312 L 126.210938 118.316406 L 119.484375 129.980469 L 97.761719 167.628906 L 51.265625 167.628906 L 117.023438 53.648438 L 183.671875 167.253906 L 151.65625 167.253906 L 138.199219 194.1875 L 230.679688 194.1875 Z M 116.832031 0.117188 " fill-opacity="1" fill-rule="nonzero"/></g><g fill="#000000" fill-opacity="1"><g transform="translate(5.776838, 222.848841)"><g><path d="M 12.390625 0 L 9.703125 0 L 8.734375 -2.984375 L 3.796875 -2.984375 L 2.8125 0 L 0.1875 0 L 4.65625 -12.921875 L 7.9375 -12.921875 Z M 6.140625 -10.21875 L 4.484375 -5.125 L 8.03125 -5.125 L 6.359375 -10.21875 Z M 6.140625 -10.21875 "/></g></g></g><g fill="#000000" fill-opacity="1"><g transform="translate(18.36252, 222.848841)"><g><path d="M 6.328125 -12.921875 C 8.421875 -12.921875 10.019531 -12.378906 11.125 -11.296875 C 12.226562 -10.210938 12.78125 -8.597656 12.78125 -6.453125 C 12.78125 -4.328125 12.226562 -2.71875 11.125 -1.625 C 10.019531 -0.539062 8.421875 0 6.328125 0 L 1.671875 0 L 1.671875 -12.921875 Z M 6.171875 -2.140625 C 7.503906 -2.140625 8.5 -2.476562 9.15625 -3.15625 C 9.820312 -3.84375 10.15625 -4.941406 10.15625 -6.453125 C 10.15625 -7.972656 9.820312 -9.070312 9.15625 -9.75 C 8.5 -10.425781 7.503906 -10.765625 6.171875 -10.765625 L 4.234375 -10.765625 L 4.234375 -2.140625 Z M 6.171875 -2.140625 "/></g></g></g><g fill="#000000" fill-opacity="1"><g transform="translate(32.167027, 222.848841)"><g><path d="M 5.71875 0.1875 C 4.820312 0.1875 4.023438 0.078125 3.328125 -0.140625 C 2.628906 -0.367188 2.046875 -0.660156 1.578125 -1.015625 C 1.117188 -1.378906 0.765625 -1.773438 0.515625 -2.203125 L 1.921875 -3.90625 L 2.140625 -3.90625 C 2.535156 -3.332031 3.03125 -2.875 3.625 -2.53125 C 4.226562 -2.1875 4.925781 -2.015625 5.71875 -2.015625 C 6.40625 -2.015625 6.921875 -2.160156 7.265625 -2.453125 C 7.617188 -2.742188 7.796875 -3.144531 7.796875 -3.65625 C 7.796875 -3.957031 7.738281 -4.210938 7.625 -4.421875 C 7.507812 -4.628906 7.320312 -4.804688 7.0625 -4.953125 C 6.800781 -5.097656 6.453125 -5.222656 6.015625 -5.328125 L 4.359375 -5.703125 C 3.191406 -5.972656 2.320312 -6.414062 1.75 -7.03125 C 1.1875 -7.644531 0.90625 -8.441406 0.90625 -9.421875 C 0.90625 -10.148438 1.085938 -10.789062 1.453125 -11.34375 C 1.816406 -11.90625 2.347656 -12.335938 3.046875 -12.640625 C 3.742188 -12.953125 4.582031 -13.109375 5.5625 -13.109375 C 6.550781 -13.109375 7.398438 -12.972656 8.109375 -12.703125 C 8.816406 -12.441406 9.414062 -12.039062 9.90625 -11.5 L 8.65625 -9.765625 L 8.421875 -9.765625 C 8.054688 -10.148438 7.640625 -10.4375 7.171875 -10.625 C 6.703125 -10.820312 6.164062 -10.921875 5.5625 -10.921875 C 4.851562 -10.921875 4.316406 -10.796875 3.953125 -10.546875 C 3.585938 -10.296875 3.40625 -9.957031 3.40625 -9.53125 C 3.40625 -9.125 3.53125 -8.796875 3.78125 -8.546875 C 4.039062 -8.304688 4.488281 -8.117188 5.125 -7.984375 L 6.828125 -7.640625 C 8.078125 -7.367188 8.984375 -6.914062 9.546875 -6.28125 C 10.117188 -5.65625 10.40625 -4.832031 10.40625 -3.8125 C 10.40625 -3 10.226562 -2.289062 9.875 -1.6875 C 9.53125 -1.09375 9.003906 -0.628906 8.296875 -0.296875 C 7.597656 0.0234375 6.738281 0.1875 5.71875 0.1875 Z M 5.71875 0.1875 "/></g></g></g><g fill="#000000" fill-opacity="1"><g transform="translate(43.260091, 222.848841)"><g/></g></g><g fill="#000000" fill-opacity="1"><g transform="translate(47.525975, 222.848841)"><g><path d="M 12.390625 0 L 9.703125 0 L 8.734375 -2.984375 L 3.796875 -2.984375 L 2.8125 0 L 0.1875 0 L 4.65625 -12.921875 L 7.9375 -12.921875 Z M 6.140625 -10.21875 L 4.484375 -5.125 L 8.03125 -5.125 L 6.359375 -10.21875 Z M 6.140625 -10.21875 "/></g></g></g><g fill="#000000" fill-opacity="1"><g transform="translate(60.111657, 222.848841)"><g><path d="M 6.84375 0.1875 C 5.0625 0.1875 3.738281 -0.234375 2.875 -1.078125 C 2.019531 -1.921875 1.59375 -3.175781 1.59375 -4.84375 L 1.59375 -12.921875 L 4.09375 -12.921875 L 4.09375 -4.859375 C 4.09375 -3.921875 4.316406 -3.210938 4.765625 -2.734375 C 5.222656 -2.265625 5.914062 -2.03125 6.84375 -2.03125 C 8.675781 -2.03125 9.59375 -2.972656 9.59375 -4.859375 L 9.59375 -12.921875 L 12.09375 -12.921875 L 12.09375 -4.84375 C 12.09375 -3.175781 11.660156 -1.921875 10.796875 -1.078125 C 9.941406 -0.234375 8.625 0.1875 6.84375 0.1875 Z M 6.84375 0.1875 "/></g></g></g><g fill="#000000" fill-opacity="1"><g transform="translate(73.801346, 222.848841)"><g><path d="M 10.359375 -12.921875 L 10.359375 -10.765625 L 6.625 -10.765625 L 6.625 0 L 4.078125 0 L 4.078125 -10.765625 L 0.359375 -10.765625 L 0.359375 -12.921875 Z M 10.359375 -12.921875 "/></g></g></g><g fill="#000000" fill-opacity="1"><g transform="translate(84.5058, 222.848841)"><g><path d="M 7.046875 0.1875 C 5.859375 0.1875 4.8125 -0.0507812 3.90625 -0.53125 C 3 -1.019531 2.289062 -1.757812 1.78125 -2.75 C 1.269531 -3.738281 1.015625 -4.972656 1.015625 -6.453125 C 1.015625 -7.929688 1.269531 -9.164062 1.78125 -10.15625 C 2.289062 -11.15625 3 -11.894531 3.90625 -12.375 C 4.8125 -12.863281 5.859375 -13.109375 7.046875 -13.109375 C 8.222656 -13.109375 9.257812 -12.863281 10.15625 -12.375 C 11.0625 -11.894531 11.769531 -11.15625 12.28125 -10.15625 C 12.789062 -9.164062 13.046875 -7.929688 13.046875 -6.453125 C 13.046875 -4.972656 12.789062 -3.734375 12.28125 -2.734375 C 11.769531 -1.742188 11.0625 -1.007812 10.15625 -0.53125 C 9.257812 -0.0507812 8.222656 0.1875 7.046875 0.1875 Z M 7.046875 -2.03125 C 8.140625 -2.03125 8.972656 -2.378906 9.546875 -3.078125 C 10.128906 -3.785156 10.421875 -4.910156 10.421875 -6.453125 C 10.421875 -7.992188 10.128906 -9.117188 9.546875 -9.828125 C 8.972656 -10.535156 8.140625 -10.890625 7.046875 -10.890625 C 5.941406 -10.890625 5.097656 -10.535156 4.515625 -9.828125 C 3.941406 -9.117188 3.65625 -7.992188 3.65625 -6.453125 C 3.65625 -4.910156 3.941406 -3.785156 4.515625 -3.078125 C 5.097656 -2.378906 5.941406 -2.03125 7.046875 -2.03125 Z M 7.046875 -2.03125 "/></g></g></g><g fill="#000000" fill-opacity="1"><g transform="translate(98.575268, 222.848841)"><g><path d="M 4.015625 0 L 1.671875 0 L 1.671875 -12.921875 L 5.015625 -12.921875 L 8.28125 -3.421875 L 8.46875 -3.421875 L 11.71875 -12.921875 L 14.984375 -12.921875 L 14.984375 0 L 12.5625 0 L 12.5625 -8.53125 L 12.34375 -8.5625 L 9.359375 0 L 7.234375 0 L 4.234375 -8.5625 L 4.015625 -8.53125 Z M 4.015625 0 "/></g></g></g><g fill="#000000" fill-opacity="1"><g transform="translate(115.24136, 222.848841)"><g><path d="M 12.390625 0 L 9.703125 0 L 8.734375 -2.984375 L 3.796875 -2.984375 L 2.8125 0 L 0.1875 0 L 4.65625 -12.921875 L 7.9375 -12.921875 Z M 6.140625 -10.21875 L 4.484375 -5.125 L 8.03125 -5.125 L 6.359375 -10.21875 Z M 6.140625 -10.21875 "/></g></g></g><g fill="#000000" fill-opacity="1"><g transform="translate(127.82705, 222.848841)"><g><path d="M 10.359375 -12.921875 L 10.359375 -10.765625 L 6.625 -10.765625 L 6.625 0 L 4.078125 0 L 4.078125 -10.765625 L 0.359375 -10.765625 L 0.359375 -12.921875 Z M 10.359375 -12.921875 "/></g></g></g><g fill="#000000" fill-opacity="1"><g transform="translate(138.531504, 222.848841)"><g><path d="M 4.234375 0 L 1.671875 0 L 1.671875 -12.921875 L 4.234375 -12.921875 Z M 4.234375 0 "/></g></g></g><g fill="#000000" fill-opacity="1"><g transform="translate(144.448982, 222.848841)"><g><path d="M 7.046875 0.1875 C 5.859375 0.1875 4.8125 -0.0507812 3.90625 -0.53125 C 3 -1.019531 2.289062 -1.757812 1.78125 -2.75 C 1.269531 -3.738281 1.015625 -4.972656 1.015625 -6.453125 C 1.015625 -7.929688 1.269531 -9.164062 1.78125 -10.15625 C 2.289062 -11.15625 3 -11.894531 3.90625 -12.375 C 4.8125 -12.863281 5.859375 -13.109375 7.046875 -13.109375 C 8.222656 -13.109375 9.257812 -12.863281 10.15625 -12.375 C 11.0625 -11.894531 11.769531 -11.15625 12.28125 -10.15625 C 12.789062 -9.164062 13.046875 -7.929688 13.046875 -6.453125 C 13.046875 -4.972656 12.789062 -3.734375 12.28125 -2.734375 C 11.769531 -1.742188 11.0625 -1.007812 10.15625 -0.53125 C 9.257812 -0.0507812 8.222656 0.1875 7.046875 0.1875 Z M 7.046875 -2.03125 C 8.140625 -2.03125 8.972656 -2.378906 9.546875 -3.078125 C 10.128906 -3.785156 10.421875 -4.910156 10.421875 -6.453125 C 10.421875 -7.992188 10.128906 -9.117188 9.546875 -9.828125 C 8.972656 -10.535156 8.140625 -10.890625 7.046875 -10.890625 C 5.941406 -10.890625 5.097656 -10.535156 4.515625 -9.828125 C 3.941406 -9.117188 3.65625 -7.992188 3.65625 -6.453125 C 3.65625 -4.910156 3.941406 -3.785156 4.515625 -3.078125 C 5.097656 -2.378906 5.941406 -2.03125 7.046875 -2.03125 Z M 7.046875 -2.03125 "/></g></g></g><g fill="#000000" fill-opacity="1"><g transform="translate(158.518457, 222.848841)"><g><path d="M 4.15625 0 L 1.671875 0 L 1.671875 -12.921875 L 4.609375 -12.921875 L 9.78125 -4.59375 L 10.015625 -4.625 L 10.015625 -12.921875 L 12.46875 -12.921875 L 12.46875 0 L 9.859375 0 L 4.375 -8.890625 L 4.15625 -8.859375 Z M 4.15625 0 "/></g></g></g><g fill="#000000" fill-opacity="1"><g transform="translate(172.676253, 222.848841)"><g/></g></g><g fill="#000000" fill-opacity="1"><g transform="translate(176.942144, 222.848841)"><g><path d="M 5.71875 0.1875 C 4.820312 0.1875 4.023438 0.078125 3.328125 -0.140625 C 2.628906 -0.367188 2.046875 -0.660156 1.578125 -1.015625 C 1.117188 -1.378906 0.765625 -1.773438 0.515625 -2.203125 L 1.921875 -3.90625 L 2.140625 -3.90625 C 2.535156 -3.332031 3.03125 -2.875 3.625 -2.53125 C 4.226562 -2.1875 4.925781 -2.015625 5.71875 -2.015625 C 6.40625 -2.015625 6.921875 -2.160156 7.265625 -2.453125 C 7.617188 -2.742188 7.796875 -3.144531 7.796875 -3.65625 C 7.796875 -3.957031 7.738281 -4.210938 7.625 -4.421875 C 7.507812 -4.628906 7.320312 -4.804688 7.0625 -4.953125 C 6.800781 -5.097656 6.453125 -5.222656 6.015625 -5.328125 L 4.359375 -5.703125 C 3.191406 -5.972656 2.320312 -6.414062 1.75 -7.03125 C 1.1875 -7.644531 0.90625 -8.441406 0.90625 -9.421875 C 0.90625 -10.148438 1.085938 -10.789062 1.453125 -11.34375 C 1.816406 -11.90625 2.347656 -12.335938 3.046875 -12.640625 C 3.742188 -12.953125 4.582031 -13.109375 5.5625 -13.109375 C 6.550781 -13.109375 7.398438 -12.972656 8.109375 -12.703125 C 8.816406 -12.441406 9.414062 -12.039062 9.90625 -11.5 L 8.65625 -9.765625 L 8.421875 -9.765625 C 8.054688 -10.148438 7.640625 -10.4375 7.171875 -10.625 C 6.703125 -10.820312 6.164062 -10.921875 5.5625 -10.921875 C 4.851562 -10.921875 4.316406 -10.796875 3.953125 -10.546875 C 3.585938 -10.296875 3.40625 -9.957031 3.40625 -9.53125 C 3.40625 -9.125 3.53125 -8.796875 3.78125 -8.546875 C 4.039062 -8.304688 4.488281 -8.117188 5.125 -7.984375 L 6.828125 -7.640625 C 8.078125 -7.367188 8.984375 -6.914062 9.546875 -6.28125 C 10.117188 -5.65625 10.40625 -4.832031 10.40625 -3.8125 C 10.40625 -3 10.226562 -2.289062 9.875 -1.6875 C 9.53125 -1.09375 9.003906 -0.628906 8.296875 -0.296875 C 7.597656 0.0234375 6.738281 0.1875 5.71875 0.1875 Z M 5.71875 0.1875 "/></g></g></g><g fill="#000000" fill-opacity="1"><g transform="translate(188.035208, 222.848841)"><g><path d="M 6.84375 0.1875 C 5.0625 0.1875 3.738281 -0.234375 2.875 -1.078125 C 2.019531 -1.921875 1.59375 -3.175781 1.59375 -4.84375 L 1.59375 -12.921875 L 4.09375 -12.921875 L 4.09375 -4.859375 C 4.09375 -3.921875 4.316406 -3.210938 4.765625 -2.734375 C 5.222656 -2.265625 5.914062 -2.03125 6.84375 -2.03125 C 8.675781 -2.03125 9.59375 -2.972656 9.59375 -4.859375 L 9.59375 -12.921875 L 12.09375 -12.921875 L 12.09375 -4.84375 C 12.09375 -3.175781 11.660156 -1.921875 10.796875 -1.078125 C 9.941406 -0.234375 8.625 0.1875 6.84375 0.1875 Z M 6.84375 0.1875 "/></g></g></g><g fill="#000000" fill-opacity="1"><g transform="translate(201.724897, 222.848841)"><g><path d="M 4.234375 0 L 1.671875 0 L 1.671875 -12.921875 L 4.234375 -12.921875 Z M 4.234375 0 "/></g></g></g><g fill="#000000" fill-opacity="1"><g transform="translate(207.642376, 222.848841)"><g><path d="M 10.359375 -12.921875 L 10.359375 -10.765625 L 6.625 -10.765625 L 6.625 0 L 4.078125 0 L 4.078125 -10.765625 L 0.359375 -10.765625 L 0.359375 -12.921875 Z M 10.359375 -12.921875 "/></g></g></g><g fill="#000000" fill-opacity="1"><g transform="translate(218.34683, 222.848841)"><g><path d="M 4.234375 -5.671875 L 4.234375 -2.140625 L 10.40625 -2.140625 L 10.40625 0 L 1.671875 0 L 1.671875 -12.921875 L 10.25 -12.921875 L 10.25 -10.78125 L 4.234375 -10.78125 L 4.234375 -7.75 L 9.5 -7.75 L 9.5 -5.671875 Z M 4.234375 -5.671875 "/></g></g></g></svg>