<?xml version="1.0" ?>
<!-- Uploaded to: SVG Repo, www.svgrepo.com, Generator: SVG Repo Mixer Tools -->
<svg width="800px" height="800px" viewBox="0 0 24 24" xmlns="http://www.w3.org/2000/svg">
<defs>
<style>.cls-1,.cls-6{fill:#9293a5;}.cls-2{fill:#f94060;}.cls-3,.cls-7{fill:#6f7188;}.cls-4,.cls-8{fill:#eae2f9;}.cls-5{fill:#c0c3ee;}.cls-6,.cls-7,.cls-8{fill-rule:evenodd;}</style>
</defs>
<g id="Briefcase">
<path class="cls-1" d="M2.24,9.47v9.29a1.4,1.4,0,0,0,1.4,1.4H20.36a1.4,1.4,0,0,0,1.4-1.4V9.47Z"/>
<path class="cls-2" d="M5.23,15.81H8.05a1.23,1.23,0,0,1,0,2.46H5.23a1.23,1.23,0,0,1,0-2.46"/>
<path class="cls-3" d="M2.24,9.47v2.74A5.94,5.94,0,0,0,4.9,13.78,27.54,27.54,0,0,0,18,14.09a1.21,1.21,0,0,1,1.51,1.17v3.5a1.4,1.4,0,0,1-1.4,1.4h2.3a1.4,1.4,0,0,0,1.4-1.4V9.47H2.24Z"/>
<path class="cls-4" d="M20.92,5.3H2.66A.67.67,0,0,0,2,6V8a4.46,4.46,0,0,0,3.25,4.31,25.36,25.36,0,0,0,13.5,0A4.46,4.46,0,0,0,22,8V6.62C22,5.78,21.51,5.3,20.92,5.3Z"/>
<path class="cls-4" d="M2.7,5.3a.71.71,0,0,0-.5.21A.68.68,0,0,0,2,6V8a4.49,4.49,0,0,0,3.3,4.33,25.39,25.39,0,0,0,13.4,0A4.49,4.49,0,0,0,22,8V6a.68.68,0,0,0-.2-.49.71.71,0,0,0-.5-.21Z"/>
<path class="cls-5" d="M19.08,5.3V8a4.49,4.49,0,0,1-3.3,4.33,25.24,25.24,0,0,1-5.24.85,25.31,25.31,0,0,0,8.16-.85A4.49,4.49,0,0,0,22,8V6a.68.68,0,0,0-.2-.49.71.71,0,0,0-.5-.21Z"/>
<path class="cls-6" d="M7.63,4.54a.7.7,0,0,0-.2-.49.71.71,0,0,0-.49-.21H4.69a.71.71,0,0,0-.5.21.7.7,0,0,0-.2.49V5.91a.7.7,0,0,0,.2.49.71.71,0,0,0,.5.21H6.94a.71.71,0,0,0,.49-.21.7.7,0,0,0,.2-.49Z"/>
<path class="cls-1" d="M17.06,3.84h2.25a.7.7,0,0,1,.7.7V5.91a.7.7,0,0,1-.7.7H17.06a.7.7,0,0,1-.7-.7V4.54A.69.69,0,0,1,17.06,3.84Z"/>
<path class="cls-7" d="M7.63,4.54a.7.7,0,0,0-.69-.7H6V6.61h.93a.7.7,0,0,0,.69-.7Z"/>
<path class="cls-7" d="M20,4.54a.7.7,0,0,0-.69-.7h-.93V6.61h.93a.7.7,0,0,0,.69-.7Z"/>
<path class="cls-8" d="M15.67,18.18h2.9a.5.5,0,0,0,.5-.5.5.5,0,0,0-.5-.5h-2.9a.5.5,0,0,0-.5.5A.5.5,0,0,0,15.67,18.18Z"/>
<path class="cls-8" d="M15.67,16.37h1.41a.5.5,0,0,0,.5-.5.5.5,0,0,0-.5-.5H15.67a.5.5,0,0,0-.5.5A.5.5,0,0,0,15.67,16.37Z"/>
</g>
</svg>